<svg xmlns="http://www.w3.org/2000/svg" xmlns:xlink="http://www.w3.org/1999/xlink" xmlns:lucid="lucid" width="1720" height="1409.6"><g transform="translate(580 -770.4)" lucid:page-tab-id="0_0"><path d="M-580 828a8 8 0 0 1 8-8h1704a8 8 0 0 1 8 8v1344a8 8 0 0 1-8 8H-572a8 8 0 0 1-8-8z" fill-opacity="0"/><path d="M60 846a6 6 0 0 1 6-6h553.74a6 6 0 0 1 6 6v258a6 6 0 0 1-6 6H66a6 6 0 0 1-6-6z" stroke="#282c33" stroke-width="2" fill="#edf5ff"/><path d="M60 879.4h565.74M60 933.83h565.74" stroke="#282c33" stroke-width="2" fill="none"/><use xlink:href="#a" transform="matrix(1,0,0,1,68,848) translate(188.18587239583331 17.499674479166668)"/><use xlink:href="#b" transform="matrix(1,0,0,1,72,887.4114583333334) translate(0 24.999674479166668)"/><use xlink:href="#c" transform="matrix(1,0,0,1,72,887.4114583333334) translate(24.804036458333336 24.999674479166668)"/><use xlink:href="#d" transform="matrix(1,0,0,1,72,887.4114583333334) translate(99.21614583333334 24.999674479166668)"/><use xlink:href="#e" transform="matrix(1,0,0,1,72,941.8229166666667) translate(0 25.129882812499993)"/><use xlink:href="#f" transform="matrix(1,0,0,1,72,941.8229166666667) translate(24.804036458333336 25.129882812499993)"/><use xlink:href="#g" transform="matrix(1,0,0,1,72,941.8229166666667) translate(285.24641927083326 25.129882812499993)"/><use xlink:href="#e" transform="matrix(1,0,0,1,72,941.8229166666667) translate(0 55.56477864583333)"/><use xlink:href="#h" transform="matrix(1,0,0,1,72,941.8229166666667) translate(24.804036458333336 55.56477864583333)"/><use xlink:href="#i" transform="matrix(1,0,0,1,72,941.8229166666667) translate(161.2262369791667 55.56477864583333)"/><use xlink:href="#e" transform="matrix(1,0,0,1,72,941.8229166666667) translate(0 85.99967447916666)"/><use xlink:href="#j" transform="matrix(1,0,0,1,72,941.8229166666667) translate(24.804036458333336 85.99967447916666)"/><use xlink:href="#k" transform="matrix(1,0,0,1,72,941.8229166666667) translate(210.83430989583334 85.99967447916666)"/><use xlink:href="#l" transform="matrix(1,0,0,1,72,941.8229166666667) translate(0 116.4345703125)"/><use xlink:href="#m" transform="matrix(1,0,0,1,72,941.8229166666667) translate(24.804036458333336 116.4345703125)"/><use xlink:href="#n" transform="matrix(1,0,0,1,72,941.8229166666667) translate(136.42220052083337 116.4345703125)"/><use xlink:href="#l" transform="matrix(1,0,0,1,72,941.8229166666667) translate(0 146.86946614583334)"/><use xlink:href="#o" transform="matrix(1,0,0,1,72,941.8229166666667) translate(24.804036458333336 146.86946614583334)"/><use xlink:href="#p" transform="matrix(1,0,0,1,72,941.8229166666667) translate(161.2262369791667 146.86946614583334)"/><path d="M-552 1466a6 6 0 0 1 6-6h806.25a6 6 0 0 1 6 6v197a6 6 0 0 1-6 6H-546a6 6 0 0 1-6-6z" stroke="#282c33" stroke-width="2" fill="#edf5ff"/><path d="M-552 1499.4h818.25M-552 1553.83h818.25" stroke="#282c33" stroke-width="2" fill="none"/><use xlink:href="#q" transform="matrix(1,0,0,1,-543.9900224442781,1468) translate(296.08284505208337 17.499674479166668)"/><use xlink:href="#b" transform="matrix(1,0,0,1,-539.9900224442781,1507.4114583333333) translate(0 24.999674479166668)"/><use xlink:href="#r" transform="matrix(1,0,0,1,-539.9900224442781,1507.4114583333333) translate(24.804036458333336 24.999674479166668)"/><use xlink:href="#s" transform="matrix(1,0,0,1,-539.9900224442781,1507.4114583333333) translate(124.02018229166669 24.999674479166668)"/><use xlink:href="#e" transform="matrix(1,0,0,1,-539.9900224442781,1561.8229166666665) translate(0 25.064778645833336)"/><use xlink:href="#t" transform="matrix(1,0,0,1,-539.9900224442781,1561.8229166666665) translate(24.804036458333336 25.064778645833336)"/><use xlink:href="#u" transform="matrix(1,0,0,1,-539.9900224442781,1561.8229166666665) translate(322.4524739583333 25.064778645833336)"/><use xlink:href="#r" transform="matrix(1,0,0,1,-539.9900224442781,1561.8229166666665) translate(421.6686197916667 25.064778645833336)"/><use xlink:href="#v" transform="matrix(1,0,0,1,-539.9900224442781,1561.8229166666665) translate(520.884765625 25.064778645833336)"/><use xlink:href="#e" transform="matrix(1,0,0,1,-539.9900224442781,1561.8229166666665) translate(0 55.49967447916667)"/><use xlink:href="#w" transform="matrix(1,0,0,1,-539.9900224442781,1561.8229166666665) translate(24.804036458333336 55.49967447916667)"/><use xlink:href="#x" transform="matrix(1,0,0,1,-539.9900224442781,1561.8229166666665) translate(136.42220052083337 55.49967447916667)"/><use xlink:href="#e" transform="matrix(1,0,0,1,-539.9900224442781,1561.8229166666665) translate(0 85.9345703125)"/><use xlink:href="#y" transform="matrix(1,0,0,1,-539.9900224442781,1561.8229166666665) translate(24.804036458333336 85.9345703125)"/><use xlink:href="#z" transform="matrix(1,0,0,1,-539.9900224442781,1561.8229166666665) translate(161.2262369791667 85.9345703125)"/><path d="M180 2026a6 6 0 0 1 6-6h348a6 6 0 0 1 6 6v109a6 6 0 0 1-6 6H186a6 6 0 0 1-6-6z" stroke="#3a414a" fill="#fff"/><g><use xlink:href="#A" transform="matrix(1,0,0,1,188,2028) translate(85.18587239583331 57.999674479166664)"/><use xlink:href="#B" transform="matrix(1,0,0,1,188,2028) translate(184.40201822916669 57.999674479166664)"/></g><path d="M740 2026a6 6 0 0 1 6-6h348a6 6 0 0 1 6 6v109a6 6 0 0 1-6 6H746a6 6 0 0 1-6-6z" stroke="#3a414a" fill="#e3fae3"/><g><use xlink:href="#C" transform="matrix(1,0,0,1,748,2028) translate(54.180826822916686 57.999674479166664)"/></g><path d="M-142.87 1457.5V1297a12 12 0 0 1 12-12h461.74a12 12 0 0 0 12-12v-135.04" stroke="#3a414a" stroke-width="3" fill="none"/><path d="M-141.4 1459h-2.94v-1.54h2.95z" stroke="#3a414a" stroke-width=".05" fill="#3a414a"/><path d="M342.87 1115.85l6.7 20.6h-13.4z" stroke="#3a414a" stroke-width="3" fill="#fff"/><path d="M360 2018v-161.25a12 12 0 0 0-12-12h-478.87a12 12 0 0 1-12-12v-135.8" stroke="#3a414a" stroke-width="3" fill="none"/><path d="M361.48 2019.5h-2.96v-1.54h2.96z" stroke="#3a414a" stroke-width=".05" fill="#3a414a"/><path d="M-142.87 1674.85l6.7 20.6h-13.4z" stroke="#3a414a" stroke-width="3" fill="#3a414a"/><path d="M542 2080.5h170.54" stroke="#3a414a" stroke-width="3" fill="none"/><path d="M542.04 2081.97h-1.54v-2.94h1.54z" stroke="#3a414a" stroke-width=".05" fill="#3a414a"/><path d="M734.65 2080.5l-20.6 6.7v-13.4z" stroke="#3a414a" stroke-width="3" fill="#3a414a"/><path d="M400 1466a6 6 0 0 1 6-6h628a6 6 0 0 1 6 6v197a6 6 0 0 1-6 6H406a6 6 0 0 1-6-6z" stroke="#282c33" stroke-width="2" fill="#edf5ff"/><path d="M400 1499.4h640m-640 54.42h640" stroke="#282c33" stroke-width="2" fill="none"/><g><use xlink:href="#D" transform="matrix(1,0,0,1,408,1468) translate(225.68587239583331 17.499674479166668)"/></g><g><use xlink:href="#b" transform="matrix(1,0,0,1,412,1507.4114583333333) translate(0 24.999674479166668)"/><use xlink:href="#r" transform="matrix(1,0,0,1,412,1507.4114583333333) translate(24.804036458333336 24.999674479166668)"/><use xlink:href="#E" transform="matrix(1,0,0,1,412,1507.4114583333333) translate(124.02018229166669 24.999674479166668)"/></g><g><use xlink:href="#F" transform="matrix(1,0,0,1,412,1561.8229166666665) translate(0 25.064778645833336)"/><use xlink:href="#G" transform="matrix(1,0,0,1,412,1561.8229166666665) translate(24.804036458333336 25.064778645833336)"/><use xlink:href="#H" transform="matrix(1,0,0,1,412,1561.8229166666665) translate(285.24641927083326 25.064778645833336)"/><use xlink:href="#I" transform="matrix(1,0,0,1,412,1561.8229166666665) translate(384.46256510416663 25.064778645833336)"/><use xlink:href="#J" transform="matrix(1,0,0,1,412,1561.8229166666665) translate(483.6787109375 25.064778645833336)"/><use xlink:href="#e" transform="matrix(1,0,0,1,412,1561.8229166666665) translate(0 55.49967447916667)"/><use xlink:href="#w" transform="matrix(1,0,0,1,412,1561.8229166666665) translate(24.804036458333336 55.49967447916667)"/><use xlink:href="#x" transform="matrix(1,0,0,1,412,1561.8229166666665) translate(136.42220052083337 55.49967447916667)"/><use xlink:href="#e" transform="matrix(1,0,0,1,412,1561.8229166666665) translate(0 85.9345703125)"/><use xlink:href="#y" transform="matrix(1,0,0,1,412,1561.8229166666665) translate(24.804036458333336 85.9345703125)"/><use xlink:href="#z" transform="matrix(1,0,0,1,412,1561.8229166666665) translate(161.2262369791667 85.9345703125)"/></g><path d="M360 2018v-161.25a12 12 0 0 1 12-12h336a12 12 0 0 0 12-12v-135.8" stroke="#3a414a" stroke-width="3" fill="none"/><path d="M361.48 2019.5h-2.96v-1.54h2.96z" stroke="#3a414a" stroke-width=".05" fill="#3a414a"/><path d="M720 1674.85l6.7 20.6h-13.4z" stroke="#3a414a" stroke-width="3" fill="#3a414a"/><path d="M720 1457.5V1297a12 12 0 0 0-12-12H354.87a12 12 0 0 1-12-12v-135.04" stroke="#3a414a" stroke-width="3" fill="none"/><path d="M721.48 1459h-2.96v-1.54h2.96z" stroke="#3a414a" stroke-width=".05" fill="#3a414a"/><path d="M342.87 1115.85l6.7 20.6h-13.4z" stroke="#3a414a" stroke-width="3" fill="#fff"/><defs><path d="M929 0l-64-382H302L91 0h-196l772-1349h217L1123 0H929zm-84-531c-33-225-70-447-100-674-114 230-242 451-363 674h463" id="K"/><path d="M809-1104c212 0 310 122 306 343-4 250-95 524-208 640C818-30 715 20 589 20c-161 0-261-59-300-184-11 55-26 116-41 164H74c18-68 35-148 49-223l245-1261h180c-39 193-73 391-116 580h4c79-124 190-200 373-200zM348-430c-24 189 33 326 217 317 240-12 292-213 339-427 14-65 21-126 22-196 0-150-52-229-193-229-257 0-320 212-371 441-7 34-11 65-14 94" id="L"/><path d="M706-965c-176 0-278 51-278 181 0 125 156 122 261 155 163 51 371 93 326 320C971-85 782 18 512 20c-227 2-392-53-402-268l165-31c1 144 117 166 263 165 166-2 306-45 306-201 0-97-96-115-178-141-139-45-315-63-388-174-17-26-26-59-26-98 0-260 204-371 480-371 203 0 355 61 361 260l-166 20c2-122-100-146-221-146" id="M"/><path d="M574 16c-199 5-309-85-269-285l131-671H268l27-142h170l113-282h120l-55 282h432l-27 142H616c-43 233-105 457-132 696-16 144 198 111 324 99 46-6 96-14 136-22L918-30C819-5 700 13 574 16" id="N"/><path d="M523-832c93-143 191-271 425-270 69 0 147 7 203 17l-33 167c-114-19-266-34-366 15-148 73-248 213-284 395L369 0H189l136-701c21-116 30-253 22-381h171c8 76 8 174 0 250h5" id="O"/><path d="M948-272c-17 76-19 161 70 161 21 0 42-3 60-7L1056-6c-45 10-88 14-142 16-138 6-175-86-155-217h-6C661-83 550 15 337 20 138 24 42-104 82-302c49-247 238-349 523-354l236-4c9-47 22-94 22-148 0-118-65-155-184-157-151-3-231 57-266 172l-185-17c67-189 220-292 480-292 245 0 377 119 330 364zm-678-27c-21 109 31 185 140 182 176-5 282-102 348-217 37-66 43-123 59-200-145 7-304-9-409 44-71 36-119 96-138 191" id="P"/><path d="M522 20c-267 0-410-127-410-389 0-365 156-619 438-707 169-53 390-23 481 68 54 54 92 128 93 229l-194 14c0-132-80-198-224-196-263 3-339 192-386 415-13 63-19 121-19 174-1 166 74 255 240 253 161-2 266-84 309-215l188 12C961-121 793 20 522 20" id="Q"/><path d="M747-1226c-195 1-328 74-328 254 0 150 168 158 292 193 206 58 444 122 384 409-56 265-271 388-594 390C217 22 49-81 40-338l192-37c3 179 117 247 303 246 215-2 375-80 375-283 0-168-187-179-325-221-168-51-357-87-357-299 0-308 229-433 548-438 258-4 409 81 417 324l-194 33c-2-154-93-214-252-213" id="R"/><path d="M726-1102c256 0 385 126 386 379 1 67-11 147-25 220H315c-7 39-13 78-13 121 2 164 74 267 238 267 154 0 260-65 317-166l149 45C916-82 760 20 514 20c-259 0-398-131-398-390 0-357 148-615 421-704 62-20 125-28 189-28zm202 461c22-192-41-335-226-328-212 9-312 142-358 328h584" id="S"/><path d="M815-1102c202-2 311 102 279 314-40 267-101 525-150 788H763l135-695c7-39 11-71 11-98 2-119-62-175-179-170-208 9-312 151-348 336L260 0H80c67-361 144-713 204-1082h170c-6 58-17 130-28 185h3c86-116 194-203 386-205" id="T"/><path d="M724-1102c292 0 423 159 388 460-35 307-154 537-400 628-65 24-136 34-212 34-254-2-388-131-388-387 0-255 97-480 226-595 103-92 231-140 386-140zM381-747C294-559 211-98 524-113c294-14 359-254 399-525 28-194-32-337-222-331-174 5-260 94-320 222" id="U"/><g id="a"><use transform="matrix(0.010091145833333334,0,0,0.010091145833333334,0,0)" xlink:href="#K"/><use transform="matrix(0.010091145833333334,0,0,0.010091145833333334,12.402018229166668,0)" xlink:href="#L"/><use transform="matrix(0.010091145833333334,0,0,0.010091145833333334,24.804036458333336,0)" xlink:href="#M"/><use transform="matrix(0.010091145833333334,0,0,0.010091145833333334,37.2060546875,0)" xlink:href="#N"/><use transform="matrix(0.010091145833333334,0,0,0.010091145833333334,49.60807291666667,0)" xlink:href="#O"/><use transform="matrix(0.010091145833333334,0,0,0.010091145833333334,62.01009114583334,0)" xlink:href="#P"/><use transform="matrix(0.010091145833333334,0,0,0.010091145833333334,74.41210937500001,0)" xlink:href="#Q"/><use transform="matrix(0.010091145833333334,0,0,0.010091145833333334,86.81412760416669,0)" xlink:href="#N"/><use transform="matrix(0.010091145833333334,0,0,0.010091145833333334,99.21614583333336,0)" xlink:href="#R"/><use transform="matrix(0.010091145833333334,0,0,0.010091145833333334,111.61816406250003,0)" xlink:href="#S"/><use transform="matrix(0.010091145833333334,0,0,0.010091145833333334,124.02018229166669,0)" xlink:href="#T"/><use transform="matrix(0.010091145833333334,0,0,0.010091145833333334,136.42220052083337,0)" xlink:href="#M"/><use transform="matrix(0.010091145833333334,0,0,0.010091145833333334,148.82421875000003,0)" xlink:href="#U"/><use transform="matrix(0.010091145833333334,0,0,0.010091145833333334,161.22623697916669,0)" xlink:href="#O"/></g><path d="M334-464v-160h560v160H334" id="V"/><use transform="matrix(0.010091145833333334,0,0,0.010091145833333334,0,0)" xlink:href="#V" id="b"/><path d="M706-1102c241 0 344 136 343 381V0H868v-695c1-168-57-273-220-268-190 6-283 138-283 336V0H185c-3-360 6-732-6-1082h170c4 54 7 126 8 185h3c63-121 164-204 346-205" id="W"/><path d="M1000-272c3 95 12 159 101 161 21 0 41-3 59-7V-6c-44 10-86 16-139 16-141 2-191-84-197-217h-6C748-76 648 20 446 20c-207 0-318-120-318-322 0-266 194-348 454-354l236-4c12-191-40-305-222-305-140 0-220 47-232 172l-188-17c33-204 181-292 423-292 255 0 401 118 401 364v466zm-683-27c0 109 63 184 175 182 166-3 259-96 306-217 24-65 20-120 20-200-232 7-501-28-501 235" id="X"/><path d="M904-1102c199 0 220 177 220 381V0H956v-686c-3-114 0-215-60-264-70-33-125-4-158 71-26 56-39 140-39 252V0H531v-686c-3-114-1-215-61-264-78-41-136 24-157 84-24 69-39 159-39 259V0H105c-3-360 6-732-6-1082h149c6 50 3 123 8 175 36-100 83-195 216-195 135 0 166 79 196 196 42-105 93-196 236-196" id="Y"/><path d="M617-1102c355 0 481 238 477 599H322c5 222 84 388 301 388 144 0 244-59 284-166l158 45C1002-72 854 20 623 20c-342 0-490-220-490-568 0-346 151-554 484-554zm291 461c-18-192-90-328-289-328-194 0-287 128-295 328h584" id="Z"/><path d="M496 0v-299h235V0H496zm0-783v-299h235v299H496" id="aa"/><g id="c"><use transform="matrix(0.010091145833333334,0,0,0.010091145833333334,0,0)" xlink:href="#W"/><use transform="matrix(0.010091145833333334,0,0,0.010091145833333334,12.402018229166668,0)" xlink:href="#X"/><use transform="matrix(0.010091145833333334,0,0,0.010091145833333334,24.804036458333336,0)" xlink:href="#Y"/><use transform="matrix(0.010091145833333334,0,0,0.010091145833333334,37.2060546875,0)" xlink:href="#Z"/><use transform="matrix(0.010091145833333334,0,0,0.010091145833333334,49.60807291666667,0)" xlink:href="#aa"/></g><path d="M631 20c-350 0-501-215-501-562 0-355 162-560 502-560 250 0 399 118 446 323l-192 14c-23-124-109-196-262-196-242 0-305 171-305 415 1 245 61 427 304 427 151 0 248-77 267-215l190 12C1039-107 883 20 631 20" id="ab"/><path d="M648-963c-190 6-283 138-283 336V0H185v-1484h181c-2 197 6 404-9 587h3c62-120 159-205 339-205 242 0 351 135 350 381V0H868v-695c1-168-57-273-220-268" id="ac"/><path d="M839-1102c70 0 148 7 206 17v167c-112-18-268-36-363 15-129 69-208 203-208 395V0H294c-10-367 32-789-52-1082h171c21 75 41 161 48 250h5c67-152 152-270 373-270" id="ad"/><path d="M410 425v-1909h547v139H590V286h367v139H410" id="ae"/><path d="M270 425V286h367v-1631H270v-139h547V425H270" id="af"/><g id="d"><use transform="matrix(0.010091145833333334,0,0,0.010091145833333334,0,0)" xlink:href="#ab"/><use transform="matrix(0.010091145833333334,0,0,0.010091145833333334,12.402018229166668,0)" xlink:href="#ac"/><use transform="matrix(0.010091145833333334,0,0,0.010091145833333334,24.804036458333336,0)" xlink:href="#X"/><use transform="matrix(0.010091145833333334,0,0,0.010091145833333334,37.2060546875,0)" xlink:href="#ad"/><use transform="matrix(0.010091145833333334,0,0,0.010091145833333334,49.60807291666667,0)" xlink:href="#ae"/><use transform="matrix(0.010091145833333334,0,0,0.010091145833333334,62.01009114583334,0)" xlink:href="#af"/></g><path d="M687-608v428H540v-428H116v-146h424v-428h147v428h424v146H687" id="ag"/><use transform="matrix(0.010091145833333334,0,0,0.010091145833333334,0,0)" xlink:href="#ag" id="e"/><path d="M1034 0L896-382H333L196 0H0l510-1349h217L1228 0h-194zM847-531c-77-225-157-447-231-674-69 231-154 451-232 674h463" id="ah"/><path d="M365-904c58-129 161-200 334-200 130 0 228 46 293 138s98 233 98 420c0 189-34 331-102 425S824 20 698 20c-170 0-275-64-336-184 0 55-3 116-9 164H179c5-68 6-147 6-223v-1261h180c-2 193 4 394-4 580h4zm283 791c221 0 256-197 256-427 0-229-34-425-254-425-236 0-285 195-285 441 0 237 53 411 283 411" id="ai"/><path d="M873-819c-18-114-119-146-250-146-163 0-245 50-245 151 0 151 170 148 294 185 182 54 388 94 388 320 0 240-189 325-439 329-245 4-410-69-454-268l159-31c24 133 136 168 295 165 144-2 270-31 270-171 0-164-195-160-331-202-167-52-350-87-350-299 0-218 173-315 413-313 220 2 373 77 412 260" id="aj"/><path d="M682 16c-209 0-323-80-324-285v-671H190v-142h170l58-282h120v282h432v142H538v652c2 114 60 155 182 155 106 0 209-16 297-34v137C921-4 806 16 682 16" id="ak"/><path d="M614-1226c-167 1-283 53-283 213 0 183 186 193 334 234 230 63 463 120 463 409 0 286-219 387-518 390C309 23 131-98 79-338l185-37c34 165 149 248 351 246 184-2 324-58 324-238 0-203-207-221-372-266-210-57-422-111-422-377 0-267 201-356 470-360 279-5 430 101 480 324l-188 33c-28-141-121-215-293-213" id="al"/><path d="M615-1102c343 0 484 203 482 560-1 347-147 562-488 562-336 0-475-219-479-562-4-349 156-560 485-560zm-8 989c240 0 301-180 301-429 0-245-55-427-290-427-236 0-299 181-299 427 0 243 61 429 288 429" id="am"/><path d="M891-1484c-201 251-362 514-362 954 0 441 161 704 362 955H701C500 176 342-90 342-532c0-440 159-704 359-952h190" id="an"/><g id="f"><use transform="matrix(0.010091145833333334,0,0,0.010091145833333334,0,0)" xlink:href="#ah"/><use transform="matrix(0.010091145833333334,0,0,0.010091145833333334,12.402018229166668,0)" xlink:href="#ai"/><use transform="matrix(0.010091145833333334,0,0,0.010091145833333334,24.804036458333336,0)" xlink:href="#aj"/><use transform="matrix(0.010091145833333334,0,0,0.010091145833333334,37.2060546875,0)" xlink:href="#ak"/><use transform="matrix(0.010091145833333334,0,0,0.010091145833333334,49.60807291666667,0)" xlink:href="#ad"/><use transform="matrix(0.010091145833333334,0,0,0.010091145833333334,62.01009114583334,0)" xlink:href="#X"/><use transform="matrix(0.010091145833333334,0,0,0.010091145833333334,74.41210937500001,0)" xlink:href="#ab"/><use transform="matrix(0.010091145833333334,0,0,0.010091145833333334,86.81412760416669,0)" xlink:href="#ak"/><use transform="matrix(0.010091145833333334,0,0,0.010091145833333334,99.21614583333336,0)" xlink:href="#al"/><use transform="matrix(0.010091145833333334,0,0,0.010091145833333334,111.61816406250003,0)" xlink:href="#Z"/><use transform="matrix(0.010091145833333334,0,0,0.010091145833333334,124.02018229166669,0)" xlink:href="#W"/><use transform="matrix(0.010091145833333334,0,0,0.010091145833333334,136.42220052083337,0)" xlink:href="#aj"/><use transform="matrix(0.010091145833333334,0,0,0.010091145833333334,148.82421875000003,0)" xlink:href="#am"/><use transform="matrix(0.010091145833333334,0,0,0.010091145833333334,161.22623697916669,0)" xlink:href="#ad"/><use transform="matrix(0.010091145833333334,0,0,0.010091145833333334,173.62825520833334,0)" xlink:href="#an"/><use transform="matrix(0.010091145833333334,0,0,0.010091145833333334,186.0302734375,0)" xlink:href="#W"/><use transform="matrix(0.010091145833333334,0,0,0.010091145833333334,198.43229166666663,0)" xlink:href="#X"/><use transform="matrix(0.010091145833333334,0,0,0.010091145833333334,210.83430989583331,0)" xlink:href="#Y"/><use transform="matrix(0.010091145833333334,0,0,0.010091145833333334,223.23632812499997,0)" xlink:href="#Z"/><use transform="matrix(0.010091145833333334,0,0,0.010091145833333334,235.63834635416666,0)" xlink:href="#aa"/></g><path d="M528-1484c201 248 357 511 357 952 0 442-156 709-357 957H336C537 174 700-89 700-530c0-440-163-703-364-954h192" id="ao"/><g id="g"><use transform="matrix(0.010091145833333334,0,0,0.010091145833333334,0,0)" xlink:href="#ab"/><use transform="matrix(0.010091145833333334,0,0,0.010091145833333334,12.402018229166668,0)" xlink:href="#ac"/><use transform="matrix(0.010091145833333334,0,0,0.010091145833333334,24.804036458333336,0)" xlink:href="#X"/><use transform="matrix(0.010091145833333334,0,0,0.010091145833333334,37.2060546875,0)" xlink:href="#ad"/><use transform="matrix(0.010091145833333334,0,0,0.010091145833333334,49.60807291666667,0)" xlink:href="#ae"/><use transform="matrix(0.010091145833333334,0,0,0.010091145833333334,62.01009114583334,0)" xlink:href="#af"/><use transform="matrix(0.010091145833333334,0,0,0.010091145833333334,74.41210937500001,0)" xlink:href="#ao"/></g><path d="M1048-32c-2 300-135 456-433 456-222-1-358-88-400-267l184-25c22 99 100 157 222 156 184-2 248-125 248-315 0-64 3-133-2-194C807-100 706-13 524-12c-306 0-381-228-381-537 0-318 85-550 400-550 164 0 271 83 325 202h3c1-60 3-134 12-185h171c-13 339-4 702-6 1050zM585-145c210-8 284-178 284-406 0-192-52-331-177-392-33-16-69-22-104-22-223 2-259 184-259 414 0 229 31 415 256 406" id="ap"/><path d="M912-211c-10-84-18-177-18-274v-864h172V0H836L316-1130c7 79 16 167 16 254V0H162v-1349h222" id="aq"/><g id="h"><use transform="matrix(0.010091145833333334,0,0,0.010091145833333334,0,0)" xlink:href="#ap"/><use transform="matrix(0.010091145833333334,0,0,0.010091145833333334,12.402018229166668,0)" xlink:href="#Z"/><use transform="matrix(0.010091145833333334,0,0,0.010091145833333334,24.804036458333336,0)" xlink:href="#ak"/><use transform="matrix(0.010091145833333334,0,0,0.010091145833333334,37.2060546875,0)" xlink:href="#aq"/><use transform="matrix(0.010091145833333334,0,0,0.010091145833333334,49.60807291666667,0)" xlink:href="#X"/><use transform="matrix(0.010091145833333334,0,0,0.010091145833333334,62.01009114583334,0)" xlink:href="#Y"/><use transform="matrix(0.010091145833333334,0,0,0.010091145833333334,74.41210937500001,0)" xlink:href="#Z"/><use transform="matrix(0.010091145833333334,0,0,0.010091145833333334,86.81412760416669,0)" xlink:href="#an"/><use transform="matrix(0.010091145833333334,0,0,0.010091145833333334,99.21614583333336,0)" xlink:href="#ao"/><use transform="matrix(0.010091145833333334,0,0,0.010091145833333334,111.61816406250003,0)" xlink:href="#aa"/></g><g id="i"><use transform="matrix(0.010091145833333334,0,0,0.010091145833333334,0,0)" xlink:href="#ab"/><use transform="matrix(0.010091145833333334,0,0,0.010091145833333334,12.402018229166668,0)" xlink:href="#ac"/><use transform="matrix(0.010091145833333334,0,0,0.010091145833333334,24.804036458333336,0)" xlink:href="#X"/><use transform="matrix(0.010091145833333334,0,0,0.010091145833333334,37.2060546875,0)" xlink:href="#ad"/><use transform="matrix(0.010091145833333334,0,0,0.010091145833333334,49.60807291666667,0)" xlink:href="#ae"/><use transform="matrix(0.010091145833333334,0,0,0.010091145833333334,62.01009114583334,0)" xlink:href="#af"/></g><path d="M698-1104c312 3 392 244 392 558 0 315-82 566-392 566-169 0-277-65-331-184h-5c8 188 2 394 4 589H185V-858c0-76-1-156-6-224h175c6 52 9 120 10 178h4c58-122 150-202 330-200zm-49 991c225 0 255-203 255-433 0-225-32-419-253-419-236 0-285 192-285 441 0 237 53 411 283 411" id="ar"/><path d="M528 20c-247 0-343-132-343-381v-721h180v686c-4 177 45 284 224 277 194-8 279-136 279-336v-627h181c3 360-6 732 6 1082H885c-4-54-7-126-8-185h-3C809-64 714 20 528 20" id="as"/><path d="M736-142h380V0H134v-142h422v-1200H267v-142h469v1342" id="at"/><path d="M745-142h380V0H143v-142h422v-798H246v-142h499v940zM545-1292v-192h200v192H545" id="au"/><path d="M473-1349c438-1 655 221 652 661C1122-268 945-8 532 0H162v-1349h311zm42 1193c308-4 416-205 418-532 2-330-131-509-459-505H353v1037h162" id="av"/><g id="j"><use transform="matrix(0.010091145833333334,0,0,0.010091145833333334,0,0)" xlink:href="#ar"/><use transform="matrix(0.010091145833333334,0,0,0.010091145833333334,12.402018229166668,0)" xlink:href="#as"/><use transform="matrix(0.010091145833333334,0,0,0.010091145833333334,24.804036458333336,0)" xlink:href="#ai"/><use transform="matrix(0.010091145833333334,0,0,0.010091145833333334,37.2060546875,0)" xlink:href="#at"/><use transform="matrix(0.010091145833333334,0,0,0.010091145833333334,49.60807291666667,0)" xlink:href="#au"/><use transform="matrix(0.010091145833333334,0,0,0.010091145833333334,62.01009114583334,0)" xlink:href="#aj"/><use transform="matrix(0.010091145833333334,0,0,0.010091145833333334,74.41210937500001,0)" xlink:href="#ac"/><use transform="matrix(0.010091145833333334,0,0,0.010091145833333334,86.81412760416669,0)" xlink:href="#av"/><use transform="matrix(0.010091145833333334,0,0,0.010091145833333334,99.21614583333336,0)" xlink:href="#X"/><use transform="matrix(0.010091145833333334,0,0,0.010091145833333334,111.61816406250003,0)" xlink:href="#ak"/><use transform="matrix(0.010091145833333334,0,0,0.010091145833333334,124.02018229166669,0)" xlink:href="#X"/><use transform="matrix(0.010091145833333334,0,0,0.010091145833333334,136.42220052083337,0)" xlink:href="#an"/><use transform="matrix(0.010091145833333334,0,0,0.010091145833333334,148.82421875000003,0)" xlink:href="#ao"/><use transform="matrix(0.010091145833333334,0,0,0.010091145833333334,161.22623697916669,0)" xlink:href="#aa"/></g><path d="M715 0H502L69-1082h202c94 253 197 500 285 758 19 57 36 126 52 183 96-335 234-626 350-941h201" id="aw"/><path d="M865-914c-3-187-2-380-2-570h180v1261c0 76 1 155 6 223H877c-8-49-9-116-10-174h-5C801-44 708 26 530 26c-135 0-234-46-297-139s-95-232-95-419c0-377 131-566 392-566 176 0 271 63 335 184zm-286-51c-222 0-255 197-255 427 0 229 31 425 253 425 237 0 286-195 286-441 0-238-52-411-284-411" id="ax"/><g id="k"><use transform="matrix(0.010091145833333334,0,0,0.010091145833333334,0,0)" xlink:href="#aw"/><use transform="matrix(0.010091145833333334,0,0,0.010091145833333334,12.402018229166668,0)" xlink:href="#am"/><use transform="matrix(0.010091145833333334,0,0,0.010091145833333334,24.804036458333336,0)" xlink:href="#au"/><use transform="matrix(0.010091145833333334,0,0,0.010091145833333334,37.2060546875,0)" xlink:href="#ax"/></g><use transform="matrix(0.010091145833333334,0,0,0.010091145833333334,0,0)" xlink:href="#ag" id="l"/><path d="M419 20c-186 0-282-64-284-243 0-40 5-86 15-138l140-721h180c-47 251-101 497-144 752-25 145 40 219 181 211 211-12 308-150 344-336l122-627h181C1087-721 1010-369 950 0H780c6-58 18-129 28-185h-3C720-71 616 20 419 20" id="ay"/><path d="M808-1104c255 0 336 185 302 442-38 281-118 532-328 640-56 28-120 42-193 42-158 0-262-57-295-184-10-1-5 5-7 18-33 194-73 381-109 571H-3C92-78 198-570 284-1082h175c-4 58-14 124-24 178h4c78-115 178-200 369-200zM343-350c-1 156 68 242 223 237 244-7 292-220 339-433 43-194 50-428-171-419-257 11-321 210-371 441-15 68-20 127-20 174" id="az"/><path d="M1074-1484C764-1178 497-826 497-240c0 287 95 480 206 665H513C401 244 309 50 309-234c0-588 264-946 575-1250h190" id="aA"/><path d="M915-832c0 594-261 950-575 1257H148C458 120 728-231 728-816c0-288-97-482-209-668h192c111 180 204 370 204 652" id="aB"/><path d="M391 0l58-299h235L626 0H391zm152-783l58-299h235l-58 299H543" id="aC"/><g id="m"><use transform="matrix(0.010091145833333334,0,0,0.010091145833333334,0,0)" xlink:href="#M"/><use transform="matrix(0.010091145833333334,0,0,0.010091145833333334,12.402018229166668,0)" xlink:href="#S"/><use transform="matrix(0.010091145833333334,0,0,0.010091145833333334,24.804036458333336,0)" xlink:href="#N"/><use transform="matrix(0.010091145833333334,0,0,0.010091145833333334,37.2060546875,0)" xlink:href="#ay"/><use transform="matrix(0.010091145833333334,0,0,0.010091145833333334,49.60807291666667,0)" xlink:href="#az"/><use transform="matrix(0.010091145833333334,0,0,0.010091145833333334,62.01009114583334,0)" xlink:href="#aA"/><use transform="matrix(0.010091145833333334,0,0,0.010091145833333334,74.41210937500001,0)" xlink:href="#aB"/><use transform="matrix(0.010091145833333334,0,0,0.010091145833333334,86.81412760416669,0)" xlink:href="#aC"/></g><path d="M659-142h380L1011 0H29l28-142h422l233-1200H423l27-142h469" id="aD"/><g id="n"><use transform="matrix(0.010091145833333334,0,0,0.010091145833333334,0,0)" xlink:href="#L"/><use transform="matrix(0.010091145833333334,0,0,0.010091145833333334,12.402018229166668,0)" xlink:href="#U"/><use transform="matrix(0.010091145833333334,0,0,0.010091145833333334,24.804036458333336,0)" xlink:href="#U"/><use transform="matrix(0.010091145833333334,0,0,0.010091145833333334,37.2060546875,0)" xlink:href="#aD"/></g><path d="M940-897c13-60 29-133 48-185h171c-77 342-140 701-210 1050-56 281-202 456-521 456-206 0-338-74-349-267l189-25c4 106 77 157 192 156 278-2 302-269 347-509h-2C725-106 614-12 421-12c-211 0-301-105-301-316 0-334 99-623 338-734 55-26 121-37 194-37 155 0 253 77 285 202h3zM384-742c-65 178-183 620 124 597 157-12 241-101 302-217 41-78 77-217 77-335 0-159-63-268-216-268-166 0-240 95-287 223" id="aE"/><path d="M630-1349c335 0 545 126 545 459 0 418-179 721-489 846C517 24 281-7 57 0l262-1349h311zm346 567c33-285-98-417-375-411H480L278-156h162c141 0 254-45 341-133 100-101 170-285 195-493" id="aF"/><g id="o"><use transform="matrix(0.010091145833333334,0,0,0.010091145833333334,0,0)" xlink:href="#aE"/><use transform="matrix(0.010091145833333334,0,0,0.010091145833333334,12.402018229166668,0)" xlink:href="#S"/><use transform="matrix(0.010091145833333334,0,0,0.010091145833333334,24.804036458333336,0)" xlink:href="#N"/><use transform="matrix(0.010091145833333334,0,0,0.010091145833333334,37.2060546875,0)" xlink:href="#aF"/><use transform="matrix(0.010091145833333334,0,0,0.010091145833333334,49.60807291666667,0)" xlink:href="#P"/><use transform="matrix(0.010091145833333334,0,0,0.010091145833333334,62.01009114583334,0)" xlink:href="#N"/><use transform="matrix(0.010091145833333334,0,0,0.010091145833333334,74.41210937500001,0)" xlink:href="#P"/><use transform="matrix(0.010091145833333334,0,0,0.010091145833333334,86.81412760416669,0)" xlink:href="#aA"/><use transform="matrix(0.010091145833333334,0,0,0.010091145833333334,99.21614583333336,0)" xlink:href="#aB"/><use transform="matrix(0.010091145833333334,0,0,0.010091145833333334,111.61816406250003,0)" xlink:href="#aC"/></g><path d="M1250-1318c-146-12-362-44-462 30-59 45-85 113-103 206h491l-27 142H658L475 0H295l183-940H216l27-142h262c39-288 215-425 565-400 70 5 148 8 208 19" id="aG"/><g id="p"><use transform="matrix(0.010091145833333334,0,0,0.010091145833333334,0,0)" xlink:href="#aG"/><use transform="matrix(0.010091145833333334,0,0,0.010091145833333334,12.402018229166668,0)" xlink:href="#aD"/><use transform="matrix(0.010091145833333334,0,0,0.010091145833333334,24.804036458333336,0)" xlink:href="#U"/><use transform="matrix(0.010091145833333334,0,0,0.010091145833333334,37.2060546875,0)" xlink:href="#P"/><use transform="matrix(0.010091145833333334,0,0,0.010091145833333334,49.60807291666667,0)" xlink:href="#N"/></g><path d="M709-1193V0H519v-1193H76v-156h1076v156H709" id="aH"/><g id="q"><use transform="matrix(0.010091145833333334,0,0,0.010091145833333334,0,0)" xlink:href="#aH"/><use transform="matrix(0.010091145833333334,0,0,0.010091145833333334,12.402018229166668,0)" xlink:href="#Z"/><use transform="matrix(0.010091145833333334,0,0,0.010091145833333334,24.804036458333336,0)" xlink:href="#Y"/><use transform="matrix(0.010091145833333334,0,0,0.010091145833333334,37.2060546875,0)" xlink:href="#ar"/><use transform="matrix(0.010091145833333334,0,0,0.010091145833333334,49.60807291666667,0)" xlink:href="#Z"/><use transform="matrix(0.010091145833333334,0,0,0.010091145833333334,62.01009114583334,0)" xlink:href="#ad"/><use transform="matrix(0.010091145833333334,0,0,0.010091145833333334,74.41210937500001,0)" xlink:href="#X"/><use transform="matrix(0.010091145833333334,0,0,0.010091145833333334,86.81412760416669,0)" xlink:href="#ak"/><use transform="matrix(0.010091145833333334,0,0,0.010091145833333334,99.21614583333336,0)" xlink:href="#as"/><use transform="matrix(0.010091145833333334,0,0,0.010091145833333334,111.61816406250003,0)" xlink:href="#ad"/><use transform="matrix(0.010091145833333334,0,0,0.010091145833333334,124.02018229166669,0)" xlink:href="#Z"/><use transform="matrix(0.010091145833333334,0,0,0.010091145833333334,136.42220052083337,0)" xlink:href="#al"/><use transform="matrix(0.010091145833333334,0,0,0.010091145833333334,148.82421875000003,0)" xlink:href="#Z"/><use transform="matrix(0.010091145833333334,0,0,0.010091145833333334,161.22623697916669,0)" xlink:href="#W"/><use transform="matrix(0.010091145833333334,0,0,0.010091145833333334,173.62825520833334,0)" xlink:href="#aj"/><use transform="matrix(0.010091145833333334,0,0,0.010091145833333334,186.0302734375,0)" xlink:href="#am"/><use transform="matrix(0.010091145833333334,0,0,0.010091145833333334,198.43229166666663,0)" xlink:href="#ad"/></g><g id="r"><use transform="matrix(0.010091145833333334,0,0,0.010091145833333334,0,0)" xlink:href="#aj"/><use transform="matrix(0.010091145833333334,0,0,0.010091145833333334,12.402018229166668,0)" xlink:href="#Z"/><use transform="matrix(0.010091145833333334,0,0,0.010091145833333334,24.804036458333336,0)" xlink:href="#W"/><use transform="matrix(0.010091145833333334,0,0,0.010091145833333334,37.2060546875,0)" xlink:href="#aj"/><use transform="matrix(0.010091145833333334,0,0,0.010091145833333334,49.60807291666667,0)" xlink:href="#am"/><use transform="matrix(0.010091145833333334,0,0,0.010091145833333334,62.01009114583334,0)" xlink:href="#ad"/><use transform="matrix(0.010091145833333334,0,0,0.010091145833333334,74.41210937500001,0)" xlink:href="#aa"/></g><path d="M839-1335c-182-6-269 67-259 253h491v142H580V0H400v-940H138v-142h262c-15-293 132-408 418-402 94 2 200 7 281 21v145c-75-10-177-14-260-17" id="aI"/><path d="M-5 220v-96h1238v96H-5" id="aJ"/><path d="M1069-1210C890-948 720-664 634-316c-25 105-38 210-38 316H408c9-385 153-667 302-925 57-98 120-190 185-279H158v-145h911v139" id="aK"/><path d="M937-319V0H757v-319H103v-140l635-890h199v888h188v142H937zm-180-835L257-461h500v-693" id="aL"/><path d="M148-1120c216-7 379-89 463-229h166v1204h353V0H157v-145h439v-1021c-79 124-254 184-448 194v-148" id="aM"/><path d="M1065-1013c47 164 49 500-1 665C999-130 875 20 611 20c-377 0-484-300-487-695-2-245 41-425 141-551 77-98 191-144 352-144 261 0 386 140 448 357zM741-155c199-92 203-504 159-785-26-168-96-284-283-284-281 0-308 256-311 549-2 181 18 324 80 428 46 77 115 118 227 120 47 0 90-10 128-28" id="aN"/><g id="s"><use transform="matrix(0.010091145833333334,0,0,0.010091145833333334,0,0)" xlink:href="#ah"/><use transform="matrix(0.010091145833333334,0,0,0.010091145833333334,12.402018229166668,0)" xlink:href="#ax"/><use transform="matrix(0.010091145833333334,0,0,0.010091145833333334,24.804036458333336,0)" xlink:href="#X"/><use transform="matrix(0.010091145833333334,0,0,0.010091145833333334,37.2060546875,0)" xlink:href="#aI"/><use transform="matrix(0.010091145833333334,0,0,0.010091145833333334,49.60807291666667,0)" xlink:href="#ad"/><use transform="matrix(0.010091145833333334,0,0,0.010091145833333334,62.01009114583334,0)" xlink:href="#as"/><use transform="matrix(0.010091145833333334,0,0,0.010091145833333334,74.41210937500001,0)" xlink:href="#au"/><use transform="matrix(0.010091145833333334,0,0,0.010091145833333334,86.81412760416669,0)" xlink:href="#ak"/><use transform="matrix(0.010091145833333334,0,0,0.010091145833333334,99.21614583333336,0)" xlink:href="#aJ"/><use transform="matrix(0.010091145833333334,0,0,0.010091145833333334,111.61816406250003,0)" xlink:href="#ah"/><use transform="matrix(0.010091145833333334,0,0,0.010091145833333334,124.02018229166669,0)" xlink:href="#av"/><use transform="matrix(0.010091145833333334,0,0,0.010091145833333334,136.42220052083337,0)" xlink:href="#aH"/><use transform="matrix(0.010091145833333334,0,0,0.010091145833333334,148.82421875000003,0)" xlink:href="#aK"/><use transform="matrix(0.010091145833333334,0,0,0.010091145833333334,161.22623697916669,0)" xlink:href="#aL"/><use transform="matrix(0.010091145833333334,0,0,0.010091145833333334,173.62825520833334,0)" xlink:href="#aM"/><use transform="matrix(0.010091145833333334,0,0,0.010091145833333334,186.0302734375,0)" xlink:href="#aN"/></g><g id="t"><use transform="matrix(0.010091145833333334,0,0,0.010091145833333334,0,0)" xlink:href="#aH"/><use transform="matrix(0.010091145833333334,0,0,0.010091145833333334,12.402018229166668,0)" xlink:href="#Z"/><use transform="matrix(0.010091145833333334,0,0,0.010091145833333334,24.804036458333336,0)" xlink:href="#Y"/><use transform="matrix(0.010091145833333334,0,0,0.010091145833333334,37.2060546875,0)" xlink:href="#ar"/><use transform="matrix(0.010091145833333334,0,0,0.010091145833333334,49.60807291666667,0)" xlink:href="#Z"/><use transform="matrix(0.010091145833333334,0,0,0.010091145833333334,62.01009114583334,0)" xlink:href="#ad"/><use transform="matrix(0.010091145833333334,0,0,0.010091145833333334,74.41210937500001,0)" xlink:href="#X"/><use transform="matrix(0.010091145833333334,0,0,0.010091145833333334,86.81412760416669,0)" xlink:href="#ak"/><use transform="matrix(0.010091145833333334,0,0,0.010091145833333334,99.21614583333336,0)" xlink:href="#as"/><use transform="matrix(0.010091145833333334,0,0,0.010091145833333334,111.61816406250003,0)" xlink:href="#ad"/><use transform="matrix(0.010091145833333334,0,0,0.010091145833333334,124.02018229166669,0)" xlink:href="#Z"/><use transform="matrix(0.010091145833333334,0,0,0.010091145833333334,136.42220052083337,0)" xlink:href="#al"/><use transform="matrix(0.010091145833333334,0,0,0.010091145833333334,148.82421875000003,0)" xlink:href="#Z"/><use transform="matrix(0.010091145833333334,0,0,0.010091145833333334,161.22623697916669,0)" xlink:href="#W"/><use transform="matrix(0.010091145833333334,0,0,0.010091145833333334,173.62825520833334,0)" xlink:href="#aj"/><use transform="matrix(0.010091145833333334,0,0,0.010091145833333334,186.0302734375,0)" xlink:href="#am"/><use transform="matrix(0.010091145833333334,0,0,0.010091145833333334,198.43229166666663,0)" xlink:href="#ad"/><use transform="matrix(0.010091145833333334,0,0,0.010091145833333334,210.83430989583331,0)" xlink:href="#an"/><use transform="matrix(0.010091145833333334,0,0,0.010091145833333334,223.23632812499997,0)" xlink:href="#W"/><use transform="matrix(0.010091145833333334,0,0,0.010091145833333334,235.63834635416666,0)" xlink:href="#X"/><use transform="matrix(0.010091145833333334,0,0,0.010091145833333334,248.0403645833333,0)" xlink:href="#Y"/><use transform="matrix(0.010091145833333334,0,0,0.010091145833333334,260.44238281249994,0)" xlink:href="#Z"/><use transform="matrix(0.010091145833333334,0,0,0.010091145833333334,272.84440104166663,0)" xlink:href="#aa"/></g><path d="M259 363l169-662h265L382 363H259" id="aO"/><g id="u"><use transform="matrix(0.010091145833333334,0,0,0.010091145833333334,0,0)" xlink:href="#ab"/><use transform="matrix(0.010091145833333334,0,0,0.010091145833333334,12.402018229166668,0)" xlink:href="#ac"/><use transform="matrix(0.010091145833333334,0,0,0.010091145833333334,24.804036458333336,0)" xlink:href="#X"/><use transform="matrix(0.010091145833333334,0,0,0.010091145833333334,37.2060546875,0)" xlink:href="#ad"/><use transform="matrix(0.010091145833333334,0,0,0.010091145833333334,49.60807291666667,0)" xlink:href="#ae"/><use transform="matrix(0.010091145833333334,0,0,0.010091145833333334,62.01009114583334,0)" xlink:href="#af"/><use transform="matrix(0.010091145833333334,0,0,0.010091145833333334,74.41210937500001,0)" xlink:href="#aO"/></g><g id="v"><use transform="matrix(0.010091145833333334,0,0,0.010091145833333334,0,0)" xlink:href="#ah"/><use transform="matrix(0.010091145833333334,0,0,0.010091145833333334,12.402018229166668,0)" xlink:href="#ax"/><use transform="matrix(0.010091145833333334,0,0,0.010091145833333334,24.804036458333336,0)" xlink:href="#X"/><use transform="matrix(0.010091145833333334,0,0,0.010091145833333334,37.2060546875,0)" xlink:href="#aI"/><use transform="matrix(0.010091145833333334,0,0,0.010091145833333334,49.60807291666667,0)" xlink:href="#ad"/><use transform="matrix(0.010091145833333334,0,0,0.010091145833333334,62.01009114583334,0)" xlink:href="#as"/><use transform="matrix(0.010091145833333334,0,0,0.010091145833333334,74.41210937500001,0)" xlink:href="#au"/><use transform="matrix(0.010091145833333334,0,0,0.010091145833333334,86.81412760416669,0)" xlink:href="#ak"/><use transform="matrix(0.010091145833333334,0,0,0.010091145833333334,99.21614583333336,0)" xlink:href="#aJ"/><use transform="matrix(0.010091145833333334,0,0,0.010091145833333334,111.61816406250003,0)" xlink:href="#ah"/><use transform="matrix(0.010091145833333334,0,0,0.010091145833333334,124.02018229166669,0)" xlink:href="#av"/><use transform="matrix(0.010091145833333334,0,0,0.010091145833333334,136.42220052083337,0)" xlink:href="#aH"/><use transform="matrix(0.010091145833333334,0,0,0.010091145833333334,148.82421875000003,0)" xlink:href="#aK"/><use transform="matrix(0.010091145833333334,0,0,0.010091145833333334,161.22623697916669,0)" xlink:href="#aL"/><use transform="matrix(0.010091145833333334,0,0,0.010091145833333334,173.62825520833334,0)" xlink:href="#aM"/><use transform="matrix(0.010091145833333334,0,0,0.010091145833333334,186.0302734375,0)" xlink:href="#aN"/><use transform="matrix(0.010091145833333334,0,0,0.010091145833333334,198.43229166666663,0)" xlink:href="#ao"/></g><g id="w"><use transform="matrix(0.010091145833333334,0,0,0.010091145833333334,0,0)" xlink:href="#aj"/><use transform="matrix(0.010091145833333334,0,0,0.010091145833333334,12.402018229166668,0)" xlink:href="#Z"/><use transform="matrix(0.010091145833333334,0,0,0.010091145833333334,24.804036458333336,0)" xlink:href="#ak"/><use transform="matrix(0.010091145833333334,0,0,0.010091145833333334,37.2060546875,0)" xlink:href="#as"/><use transform="matrix(0.010091145833333334,0,0,0.010091145833333334,49.60807291666667,0)" xlink:href="#ar"/><use transform="matrix(0.010091145833333334,0,0,0.010091145833333334,62.01009114583334,0)" xlink:href="#an"/><use transform="matrix(0.010091145833333334,0,0,0.010091145833333334,74.41210937500001,0)" xlink:href="#ao"/><use transform="matrix(0.010091145833333334,0,0,0.010091145833333334,86.81412760416669,0)" xlink:href="#aa"/></g><g id="x"><use transform="matrix(0.010091145833333334,0,0,0.010091145833333334,0,0)" xlink:href="#ai"/><use transform="matrix(0.010091145833333334,0,0,0.010091145833333334,12.402018229166668,0)" xlink:href="#am"/><use transform="matrix(0.010091145833333334,0,0,0.010091145833333334,24.804036458333336,0)" xlink:href="#am"/><use transform="matrix(0.010091145833333334,0,0,0.010091145833333334,37.2060546875,0)" xlink:href="#at"/></g><g id="y"><use transform="matrix(0.010091145833333334,0,0,0.010091145833333334,0,0)" xlink:href="#ap"/><use transform="matrix(0.010091145833333334,0,0,0.010091145833333334,12.402018229166668,0)" xlink:href="#Z"/><use transform="matrix(0.010091145833333334,0,0,0.010091145833333334,24.804036458333336,0)" xlink:href="#ak"/><use transform="matrix(0.010091145833333334,0,0,0.010091145833333334,37.2060546875,0)" xlink:href="#av"/><use transform="matrix(0.010091145833333334,0,0,0.010091145833333334,49.60807291666667,0)" xlink:href="#X"/><use transform="matrix(0.010091145833333334,0,0,0.010091145833333334,62.01009114583334,0)" xlink:href="#ak"/><use transform="matrix(0.010091145833333334,0,0,0.010091145833333334,74.41210937500001,0)" xlink:href="#X"/><use transform="matrix(0.010091145833333334,0,0,0.010091145833333334,86.81412760416669,0)" xlink:href="#an"/><use transform="matrix(0.010091145833333334,0,0,0.010091145833333334,99.21614583333336,0)" xlink:href="#ao"/><use transform="matrix(0.010091145833333334,0,0,0.010091145833333334,111.61816406250003,0)" xlink:href="#aa"/></g><g id="z"><use transform="matrix(0.010091145833333334,0,0,0.010091145833333334,0,0)" xlink:href="#aI"/><use transform="matrix(0.010091145833333334,0,0,0.010091145833333334,12.402018229166668,0)" xlink:href="#at"/><use transform="matrix(0.010091145833333334,0,0,0.010091145833333334,24.804036458333336,0)" xlink:href="#am"/><use transform="matrix(0.010091145833333334,0,0,0.010091145833333334,37.2060546875,0)" xlink:href="#X"/><use transform="matrix(0.010091145833333334,0,0,0.010091145833333334,49.60807291666667,0)" xlink:href="#ak"/></g><g id="A"><use transform="matrix(0.010091145833333334,0,0,0.010091145833333334,0,0)" xlink:href="#ah"/><use transform="matrix(0.010091145833333334,0,0,0.010091145833333334,12.402018229166668,0)" xlink:href="#ad"/><use transform="matrix(0.010091145833333334,0,0,0.010091145833333334,24.804036458333336,0)" xlink:href="#ax"/><use transform="matrix(0.010091145833333334,0,0,0.010091145833333334,37.2060546875,0)" xlink:href="#as"/><use transform="matrix(0.010091145833333334,0,0,0.010091145833333334,49.60807291666667,0)" xlink:href="#au"/><use transform="matrix(0.010091145833333334,0,0,0.010091145833333334,62.01009114583334,0)" xlink:href="#W"/><use transform="matrix(0.010091145833333334,0,0,0.010091145833333334,74.41210937500001,0)" xlink:href="#am"/></g><path d="M914 0L548-499l-132 98V0H236v-1484h180v927l475-525h211L663-617 1125 0H914" id="aP"/><g id="B"><use transform="matrix(0.010091145833333334,0,0,0.010091145833333334,0,0)" xlink:href="#al"/><use transform="matrix(0.010091145833333334,0,0,0.010091145833333334,12.402018229166668,0)" xlink:href="#aP"/><use transform="matrix(0.010091145833333334,0,0,0.010091145833333334,24.804036458333336,0)" xlink:href="#Z"/><use transform="matrix(0.010091145833333334,0,0,0.010091145833333334,37.2060546875,0)" xlink:href="#ak"/><use transform="matrix(0.010091145833333334,0,0,0.010091145833333334,49.60807291666667,0)" xlink:href="#ab"/><use transform="matrix(0.010091145833333334,0,0,0.010091145833333334,62.01009114583334,0)" xlink:href="#ac"/></g><path d="M496 0v-299h235V0H496" id="aQ"/><g id="C"><use transform="matrix(0.010091145833333334,0,0,0.010091145833333334,0,0)" xlink:href="#ab"/><use transform="matrix(0.010091145833333334,0,0,0.010091145833333334,12.402018229166668,0)" xlink:href="#am"/><use transform="matrix(0.010091145833333334,0,0,0.010091145833333334,24.804036458333336,0)" xlink:href="#W"/><use transform="matrix(0.010091145833333334,0,0,0.010091145833333334,37.2060546875,0)" xlink:href="#W"/><use transform="matrix(0.010091145833333334,0,0,0.010091145833333334,49.60807291666667,0)" xlink:href="#Z"/><use transform="matrix(0.010091145833333334,0,0,0.010091145833333334,62.01009114583334,0)" xlink:href="#ab"/><use transform="matrix(0.010091145833333334,0,0,0.010091145833333334,74.41210937500001,0)" xlink:href="#ak"/><use transform="matrix(0.010091145833333334,0,0,0.010091145833333334,86.81412760416669,0)" xlink:href="#au"/><use transform="matrix(0.010091145833333334,0,0,0.010091145833333334,99.21614583333336,0)" xlink:href="#am"/><use transform="matrix(0.010091145833333334,0,0,0.010091145833333334,111.61816406250003,0)" xlink:href="#W"/><use transform="matrix(0.010091145833333334,0,0,0.010091145833333334,124.02018229166669,0)" xlink:href="#aJ"/><use transform="matrix(0.010091145833333334,0,0,0.010091145833333334,136.42220052083337,0)" xlink:href="#ab"/><use transform="matrix(0.010091145833333334,0,0,0.010091145833333334,148.82421875000003,0)" xlink:href="#am"/><use transform="matrix(0.010091145833333334,0,0,0.010091145833333334,161.22623697916669,0)" xlink:href="#W"/><use transform="matrix(0.010091145833333334,0,0,0.010091145833333334,173.62825520833334,0)" xlink:href="#aI"/><use transform="matrix(0.010091145833333334,0,0,0.010091145833333334,186.0302734375,0)" xlink:href="#au"/><use transform="matrix(0.010091145833333334,0,0,0.010091145833333334,198.43229166666663,0)" xlink:href="#ap"/><use transform="matrix(0.010091145833333334,0,0,0.010091145833333334,210.83430989583331,0)" xlink:href="#aQ"/><use transform="matrix(0.010091145833333334,0,0,0.010091145833333334,223.23632812499997,0)" xlink:href="#ac"/></g><path d="M875 0v-623H353V0H162v-1349h191v566h522v-566h191V0H875" id="aR"/><path d="M168 279c222 39 310-114 368-290L66-1082h192c120 299 249 590 362 896 115-301 235-597 351-896h190L705 0c-65 164-130 320-275 396-67 36-177 35-262 18V279" id="aS"/><g id="D"><use transform="matrix(0.010091145833333334,0,0,0.010091145833333334,0,0)" xlink:href="#aR"/><use transform="matrix(0.010091145833333334,0,0,0.010091145833333334,12.402018229166668,0)" xlink:href="#as"/><use transform="matrix(0.010091145833333334,0,0,0.010091145833333334,24.804036458333336,0)" xlink:href="#Y"/><use transform="matrix(0.010091145833333334,0,0,0.010091145833333334,37.2060546875,0)" xlink:href="#au"/><use transform="matrix(0.010091145833333334,0,0,0.010091145833333334,49.60807291666667,0)" xlink:href="#ax"/><use transform="matrix(0.010091145833333334,0,0,0.010091145833333334,62.01009114583334,0)" xlink:href="#au"/><use transform="matrix(0.010091145833333334,0,0,0.010091145833333334,74.41210937500001,0)" xlink:href="#ak"/><use transform="matrix(0.010091145833333334,0,0,0.010091145833333334,86.81412760416669,0)" xlink:href="#aS"/><use transform="matrix(0.010091145833333334,0,0,0.010091145833333334,99.21614583333336,0)" xlink:href="#al"/><use transform="matrix(0.010091145833333334,0,0,0.010091145833333334,111.61816406250003,0)" xlink:href="#Z"/><use transform="matrix(0.010091145833333334,0,0,0.010091145833333334,124.02018229166669,0)" xlink:href="#W"/><use transform="matrix(0.010091145833333334,0,0,0.010091145833333334,136.42220052083337,0)" xlink:href="#aj"/><use transform="matrix(0.010091145833333334,0,0,0.010091145833333334,148.82421875000003,0)" xlink:href="#am"/><use transform="matrix(0.010091145833333334,0,0,0.010091145833333334,161.22623697916669,0)" xlink:href="#ad"/></g><g id="E"><use transform="matrix(0.010091145833333334,0,0,0.010091145833333334,0,0)" xlink:href="#av"/><use transform="matrix(0.010091145833333334,0,0,0.010091145833333334,12.402018229166668,0)" xlink:href="#aR"/><use transform="matrix(0.010091145833333334,0,0,0.010091145833333334,24.804036458333336,0)" xlink:href="#aH"/></g><use transform="matrix(0.010091145833333334,0,0,0.010091145833333334,0,0)" xlink:href="#ag" id="F"/><g id="G"><use transform="matrix(0.010091145833333334,0,0,0.010091145833333334,0,0)" xlink:href="#aR"/><use transform="matrix(0.010091145833333334,0,0,0.010091145833333334,12.402018229166668,0)" xlink:href="#as"/><use transform="matrix(0.010091145833333334,0,0,0.010091145833333334,24.804036458333336,0)" xlink:href="#Y"/><use transform="matrix(0.010091145833333334,0,0,0.010091145833333334,37.2060546875,0)" xlink:href="#au"/><use transform="matrix(0.010091145833333334,0,0,0.010091145833333334,49.60807291666667,0)" xlink:href="#ax"/><use transform="matrix(0.010091145833333334,0,0,0.010091145833333334,62.01009114583334,0)" xlink:href="#au"/><use transform="matrix(0.010091145833333334,0,0,0.010091145833333334,74.41210937500001,0)" xlink:href="#ak"/><use transform="matrix(0.010091145833333334,0,0,0.010091145833333334,86.81412760416669,0)" xlink:href="#aS"/><use transform="matrix(0.010091145833333334,0,0,0.010091145833333334,99.21614583333336,0)" xlink:href="#al"/><use transform="matrix(0.010091145833333334,0,0,0.010091145833333334,111.61816406250003,0)" xlink:href="#Z"/><use transform="matrix(0.010091145833333334,0,0,0.010091145833333334,124.02018229166669,0)" xlink:href="#W"/><use transform="matrix(0.010091145833333334,0,0,0.010091145833333334,136.42220052083337,0)" xlink:href="#aj"/><use transform="matrix(0.010091145833333334,0,0,0.010091145833333334,148.82421875000003,0)" xlink:href="#am"/><use transform="matrix(0.010091145833333334,0,0,0.010091145833333334,161.22623697916669,0)" xlink:href="#ad"/><use transform="matrix(0.010091145833333334,0,0,0.010091145833333334,173.62825520833334,0)" xlink:href="#an"/><use transform="matrix(0.010091145833333334,0,0,0.010091145833333334,186.0302734375,0)" xlink:href="#W"/><use transform="matrix(0.010091145833333334,0,0,0.010091145833333334,198.43229166666663,0)" xlink:href="#X"/><use transform="matrix(0.010091145833333334,0,0,0.010091145833333334,210.83430989583331,0)" xlink:href="#Y"/><use transform="matrix(0.010091145833333334,0,0,0.010091145833333334,223.23632812499997,0)" xlink:href="#Z"/><use transform="matrix(0.010091145833333334,0,0,0.010091145833333334,235.63834635416666,0)" xlink:href="#aa"/></g><g id="H"><use transform="matrix(0.010091145833333334,0,0,0.010091145833333334,0,0)" xlink:href="#ab"/><use transform="matrix(0.010091145833333334,0,0,0.010091145833333334,12.402018229166668,0)" xlink:href="#ac"/><use transform="matrix(0.010091145833333334,0,0,0.010091145833333334,24.804036458333336,0)" xlink:href="#X"/><use transform="matrix(0.010091145833333334,0,0,0.010091145833333334,37.2060546875,0)" xlink:href="#ad"/><use transform="matrix(0.010091145833333334,0,0,0.010091145833333334,49.60807291666667,0)" xlink:href="#ae"/><use transform="matrix(0.010091145833333334,0,0,0.010091145833333334,62.01009114583334,0)" xlink:href="#af"/><use transform="matrix(0.010091145833333334,0,0,0.010091145833333334,74.41210937500001,0)" xlink:href="#aO"/></g><g id="I"><use transform="matrix(0.010091145833333334,0,0,0.010091145833333334,0,0)" xlink:href="#aj"/><use transform="matrix(0.010091145833333334,0,0,0.010091145833333334,12.402018229166668,0)" xlink:href="#Z"/><use transform="matrix(0.010091145833333334,0,0,0.010091145833333334,24.804036458333336,0)" xlink:href="#W"/><use transform="matrix(0.010091145833333334,0,0,0.010091145833333334,37.2060546875,0)" xlink:href="#aj"/><use transform="matrix(0.010091145833333334,0,0,0.010091145833333334,49.60807291666667,0)" xlink:href="#am"/><use transform="matrix(0.010091145833333334,0,0,0.010091145833333334,62.01009114583334,0)" xlink:href="#ad"/><use transform="matrix(0.010091145833333334,0,0,0.010091145833333334,74.41210937500001,0)" xlink:href="#aa"/></g><g id="J"><use transform="matrix(0.010091145833333334,0,0,0.010091145833333334,0,0)" xlink:href="#av"/><use transform="matrix(0.010091145833333334,0,0,0.010091145833333334,12.402018229166668,0)" xlink:href="#aR"/><use transform="matrix(0.010091145833333334,0,0,0.010091145833333334,24.804036458333336,0)" xlink:href="#aH"/><use transform="matrix(0.010091145833333334,0,0,0.010091145833333334,37.2060546875,0)" xlink:href="#ao"/></g></defs></g></svg>
